<svg width="76" height="72" viewBox="0 0 76 72" fill="none" xmlns="http://www.w3.org/2000/svg">
<path fill-rule="evenodd" clip-rule="evenodd" d="M73.2235 46.9535L60.9097 66.8464C57.5636 72.2515 50.0506 73.1172 45.5611 68.6277C43.6482 66.7148 42.8688 63.8997 43.5244 61.279L45.4692 53.4969C45.8026 52.1655 45.4067 50.7352 44.4362 49.7648L21.8343 27.1629C20.8639 26.1924 19.4345 25.7965 18.103 26.1299L10.3196 28.0751C7.69986 28.7307 4.8847 27.9513 2.974 26.0406C-1.5224 21.5442 -0.646843 14.0325 4.75315 10.6899L24.646 -1.62402C31.9679 -6.15708 40.0968 -3.77065 44.5535 0.686075L70.9139 27.0464C77.0031 33.1356 76.5412 41.5949 73.2235 46.9535ZM34.7917 18.8343L36.6834 20.726C37.5978 21.6404 39.0806 21.6404 39.995 20.726C40.9098 19.8112 40.9098 18.3284 39.9955 17.414L38.1037 15.5223L39.9955 13.6305C40.9098 12.7162 40.9098 11.2333 39.995 10.3185C39.0806 9.40413 37.5978 9.40414 36.6834 10.3185L34.7917 12.2102L32.9 10.3185C31.9856 9.40414 30.5028 9.40413 29.588 10.3189C28.6736 11.2333 28.6736 12.7162 29.588 13.6305L31.4797 15.5223L29.588 17.414C28.6736 18.3284 28.6736 19.8112 29.588 20.7256C30.5028 21.6404 31.9856 21.6404 32.9 20.726L34.7917 18.8343ZM50.8735 34.9161C49.9596 34.0022 49.9596 32.5184 50.8735 31.6045C51.7879 30.6901 53.272 30.6906 54.1855 31.6041C55.0999 32.5184 55.0999 34.0021 54.1855 34.9165C53.2716 35.8305 51.7879 35.8305 50.8735 34.9161ZM50.8735 38.6995C49.9596 39.6135 49.96 41.0976 50.8739 42.0116C51.7879 42.9255 53.2716 42.9255 54.1855 42.0116C55.0995 41.0976 55.0999 39.6135 54.186 38.6995C53.272 37.7856 51.7875 37.7856 50.8735 38.6995ZM57.969 34.9165C57.055 34.0026 57.0546 32.5184 57.969 31.6041C58.8829 30.6901 60.3671 30.6906 61.281 31.6045C62.195 32.5184 62.195 34.0021 61.281 34.9161C60.3666 35.8305 58.8829 35.8305 57.969 34.9165ZM57.9686 38.6995C57.0546 39.6135 57.055 41.0976 57.969 42.0116C58.8829 42.9255 60.3666 42.9255 61.2806 42.0116C62.195 41.0972 62.195 39.6135 61.281 38.6995C60.3671 37.7856 58.8829 37.7852 57.9686 38.6995Z" fill="#3F9CBB"/>
</svg>
